<mxfile modified="2023-04-16T05:23:29.615Z" host="app.diagrams.net" agent="Mozilla/5.0 (Macintosh; Intel Mac OS X 10_15_7) AppleWebKit/537.36 (KHTML, like Gecko) Chrome/112.0.0.0 Safari/537.36" etag="VV3GZEChH_oELdlLZmCX" version="21.1.8" type="github">
  <diagram id="Ht1M8jgEwFfnCIfOTk4-" name="Page-1">
    <mxGraphModel dx="1462" dy="1516" grid="1" gridSize="10" guides="1" tooltips="1" connect="1" arrows="1" fold="1" page="1" pageScale="1" pageWidth="1169" pageHeight="827" math="0" shadow="0">
      <root>
        <mxCell id="0" />
        <mxCell id="1" parent="0" />
        <mxCell id="UEzPUAAOIrF-is8g5C7q-176" value="Shared Services Account" style="points=[[0,0],[0.25,0],[0.5,0],[0.75,0],[1,0],[1,0.25],[1,0.5],[1,0.75],[1,1],[0.75,1],[0.5,1],[0.25,1],[0,1],[0,0.75],[0,0.5],[0,0.25]];outlineConnect=0;gradientColor=none;html=1;whiteSpace=wrap;fontSize=12;fontStyle=0;shape=mxgraph.aws4.group;grIcon=mxgraph.aws4.group_aws_cloud_alt;strokeColor=#232F3E;fillColor=none;verticalAlign=top;align=left;spacingLeft=30;fontColor=#232F3E;dashed=0;labelBackgroundColor=#ffffff;container=1;pointerEvents=0;collapsible=0;recursiveResize=0;" parent="1" vertex="1">
          <mxGeometry x="219" y="-349.5" width="220" height="310" as="geometry" />
        </mxCell>
        <mxCell id="UEzPUAAOIrF-is8g5C7q-185" value="Log Archive Account" style="points=[[0,0],[0.25,0],[0.5,0],[0.75,0],[1,0],[1,0.25],[1,0.5],[1,0.75],[1,1],[0.75,1],[0.5,1],[0.25,1],[0,1],[0,0.75],[0,0.5],[0,0.25]];outlineConnect=0;gradientColor=none;html=1;whiteSpace=wrap;fontSize=12;fontStyle=0;shape=mxgraph.aws4.group;grIcon=mxgraph.aws4.group_aws_cloud_alt;strokeColor=#232F3E;fillColor=none;verticalAlign=top;align=left;spacingLeft=30;fontColor=#232F3E;dashed=0;labelBackgroundColor=#ffffff;container=1;pointerEvents=0;collapsible=0;recursiveResize=0;" parent="1" vertex="1">
          <mxGeometry x="464" y="-349.5" width="230" height="310" as="geometry" />
        </mxCell>
        <mxCell id="UEzPUAAOIrF-is8g5C7q-186" value="Security Account" style="points=[[0,0],[0.25,0],[0.5,0],[0.75,0],[1,0],[1,0.25],[1,0.5],[1,0.75],[1,1],[0.75,1],[0.5,1],[0.25,1],[0,1],[0,0.75],[0,0.5],[0,0.25]];outlineConnect=0;gradientColor=none;html=1;whiteSpace=wrap;fontSize=12;fontStyle=0;shape=mxgraph.aws4.group;grIcon=mxgraph.aws4.group_aws_cloud_alt;strokeColor=#232F3E;fillColor=none;verticalAlign=top;align=left;spacingLeft=30;fontColor=#232F3E;dashed=0;labelBackgroundColor=#ffffff;container=1;pointerEvents=0;collapsible=0;recursiveResize=0;" parent="1" vertex="1">
          <mxGeometry x="720" y="-349.5" width="230" height="310" as="geometry" />
        </mxCell>
        <mxCell id="UEzPUAAOIrF-is8g5C7q-175" value="AWS Cloud" style="points=[[0,0],[0.25,0],[0.5,0],[0.75,0],[1,0],[1,0.25],[1,0.5],[1,0.75],[1,1],[0.75,1],[0.5,1],[0.25,1],[0,1],[0,0.75],[0,0.5],[0,0.25]];outlineConnect=0;gradientColor=none;html=1;whiteSpace=wrap;fontSize=12;fontStyle=0;shape=mxgraph.aws4.group;grIcon=mxgraph.aws4.group_aws_cloud_alt;strokeColor=#232F3E;fillColor=none;verticalAlign=top;align=left;spacingLeft=30;fontColor=#232F3E;dashed=0;labelBackgroundColor=#ffffff;container=1;pointerEvents=0;collapsible=0;recursiveResize=0;" parent="1" vertex="1">
          <mxGeometry x="219" y="-789.5" width="730" height="410" as="geometry" />
        </mxCell>
        <mxCell id="EstUSv9-y07L2qEGAP5X-1" value="EventBridge" style="sketch=0;points=[[0,0,0],[0.25,0,0],[0.5,0,0],[0.75,0,0],[1,0,0],[0,1,0],[0.25,1,0],[0.5,1,0],[0.75,1,0],[1,1,0],[0,0.25,0],[0,0.5,0],[0,0.75,0],[1,0.25,0],[1,0.5,0],[1,0.75,0]];outlineConnect=0;fontColor=#232F3E;gradientColor=#FF4F8B;gradientDirection=north;fillColor=#BC1356;strokeColor=#ffffff;dashed=0;verticalLabelPosition=bottom;verticalAlign=top;align=center;html=1;fontSize=12;fontStyle=0;aspect=fixed;shape=mxgraph.aws4.resourceIcon;resIcon=mxgraph.aws4.eventbridge;" vertex="1" parent="UEzPUAAOIrF-is8g5C7q-175">
          <mxGeometry x="531" y="59.5" width="78" height="78" as="geometry" />
        </mxCell>
        <mxCell id="UEzPUAAOIrF-is8g5C7q-187" value="Account&lt;br&gt;Baseline&lt;br&gt;" style="outlineConnect=0;fontColor=#232F3E;gradientColor=#F34482;gradientDirection=north;fillColor=#BC1356;strokeColor=#ffffff;dashed=0;verticalLabelPosition=bottom;verticalAlign=top;align=center;html=1;fontSize=12;fontStyle=0;aspect=fixed;shape=mxgraph.aws4.resourceIcon;resIcon=mxgraph.aws4.cloudformation;labelBackgroundColor=#ffffff;" parent="1" vertex="1">
          <mxGeometry x="239" y="-297.5" width="78" height="78" as="geometry" />
        </mxCell>
        <mxCell id="UEzPUAAOIrF-is8g5C7q-188" value="Amazon VPC" style="outlineConnect=0;fontColor=#232F3E;gradientColor=#945DF2;gradientDirection=north;fillColor=#5A30B5;strokeColor=#ffffff;dashed=0;verticalLabelPosition=bottom;verticalAlign=top;align=center;html=1;fontSize=12;fontStyle=0;aspect=fixed;shape=mxgraph.aws4.resourceIcon;resIcon=mxgraph.aws4.vpc;labelBackgroundColor=#ffffff;" parent="1" vertex="1">
          <mxGeometry x="340" y="-298.5" width="78" height="78" as="geometry" />
        </mxCell>
        <mxCell id="UEzPUAAOIrF-is8g5C7q-189" value="Account&lt;br&gt;Baseline&lt;br&gt;" style="outlineConnect=0;fontColor=#232F3E;gradientColor=#F34482;gradientDirection=north;fillColor=#BC1356;strokeColor=#ffffff;dashed=0;verticalLabelPosition=bottom;verticalAlign=top;align=center;html=1;fontSize=12;fontStyle=0;aspect=fixed;shape=mxgraph.aws4.resourceIcon;resIcon=mxgraph.aws4.cloudformation;labelBackgroundColor=#ffffff;" parent="1" vertex="1">
          <mxGeometry x="479" y="-298.5" width="78" height="78" as="geometry" />
        </mxCell>
        <mxCell id="UEzPUAAOIrF-is8g5C7q-190" value="Aggregate&lt;br&gt;CloudTrail&lt;br&gt;and Config Logs&lt;br&gt;" style="outlineConnect=0;fontColor=#232F3E;gradientColor=none;fillColor=#5A30B5;strokeColor=none;dashed=0;verticalLabelPosition=bottom;verticalAlign=top;align=center;html=1;fontSize=12;fontStyle=0;aspect=fixed;pointerEvents=1;shape=mxgraph.aws4.flow_logs;labelBackgroundColor=#ffffff;" parent="1" vertex="1">
          <mxGeometry x="581" y="-299.5" width="78" height="78" as="geometry" />
        </mxCell>
        <mxCell id="UEzPUAAOIrF-is8g5C7q-191" value="Account&lt;br&gt;Baseline&lt;br&gt;" style="outlineConnect=0;fontColor=#232F3E;gradientColor=#F34482;gradientDirection=north;fillColor=#BC1356;strokeColor=#ffffff;dashed=0;verticalLabelPosition=bottom;verticalAlign=top;align=center;html=1;fontSize=12;fontStyle=0;aspect=fixed;shape=mxgraph.aws4.resourceIcon;resIcon=mxgraph.aws4.cloudformation;labelBackgroundColor=#ffffff;" parent="1" vertex="1">
          <mxGeometry x="740" y="-299.5" width="78" height="78" as="geometry" />
        </mxCell>
        <mxCell id="UEzPUAAOIrF-is8g5C7q-192" value="Security&lt;br&gt;Cross-Account&lt;br&gt;Roles&lt;br&gt;" style="outlineConnect=0;fontColor=#232F3E;gradientColor=none;fillColor=#C7131F;strokeColor=none;dashed=0;verticalLabelPosition=bottom;verticalAlign=top;align=center;html=1;fontSize=12;fontStyle=0;aspect=fixed;pointerEvents=1;shape=mxgraph.aws4.addon;labelBackgroundColor=#ffffff;" parent="1" vertex="1">
          <mxGeometry x="849" y="-280.5" width="78" height="40" as="geometry" />
        </mxCell>
        <mxCell id="UEzPUAAOIrF-is8g5C7q-193" value="Amazon&lt;br&gt;GuardDuty&lt;br&gt;" style="outlineConnect=0;fontColor=#232F3E;gradientColor=#F54749;gradientDirection=north;fillColor=#C7131F;strokeColor=#ffffff;dashed=0;verticalLabelPosition=bottom;verticalAlign=top;align=center;html=1;fontSize=12;fontStyle=0;aspect=fixed;shape=mxgraph.aws4.resourceIcon;resIcon=mxgraph.aws4.guardduty;labelBackgroundColor=#ffffff;" parent="1" vertex="1">
          <mxGeometry x="740" y="-169.5" width="78" height="78" as="geometry" />
        </mxCell>
        <mxCell id="UEzPUAAOIrF-is8g5C7q-194" value="Amazon SNS" style="outlineConnect=0;fontColor=#232F3E;gradientColor=#F34482;gradientDirection=north;fillColor=#BC1356;strokeColor=#ffffff;dashed=0;verticalLabelPosition=bottom;verticalAlign=top;align=center;html=1;fontSize=12;fontStyle=0;aspect=fixed;shape=mxgraph.aws4.resourceIcon;resIcon=mxgraph.aws4.sns;labelBackgroundColor=#ffffff;" parent="1" vertex="1">
          <mxGeometry x="849" y="-169.5" width="78" height="78" as="geometry" />
        </mxCell>
        <mxCell id="EstUSv9-y07L2qEGAP5X-2" value="" style="shape=image;verticalLabelPosition=bottom;labelBackgroundColor=default;verticalAlign=top;aspect=fixed;imageAspect=0;image=data:image/jpeg,/9j/4AAQSkZJRgABAQAAAQABAAD/2wCEAAoHCBUVFRYUFRUYGRgWHSEZGRoYFRgcFRwcGh4eHR4cGBkcIS4lHB4rHxYaJjgmLDAxNTU1GiQ9QDs0Py40NTEBDAwMEA8QHxISHz0rJSc2Pz80NDQ/NT8/MTE/PzQ/NzE9Nj8xNjQxNzE2NTQ/OD83ND0xNDQ0Nj8/NDExND0xO//AABEIAI8BYQMBIgACEQEDEQH/xAAcAAEAAgIDAQAAAAAAAAAAAAAABgcEBQEDCAL/xABBEAACAQMCAwUGAwUGBQUAAAABAgADBBEFEgYhMQcTQVFxIjJhgZGhUoLBFEJisdEjM0NysuEVkqLw8RYXRIPC/8QAGQEBAAMBAQAAAAAAAAAAAAAAAAIDBAEF/8QAIxEBAQABBAICAgMAAAAAAAAAAAECAwQRMRIhIjJBURMUYf/aAAwDAQACEQMRAD8AuaIiAiIgIiICIiAiIgIiICIiAiIgIiICIiAiIgIiICIiAiIgIiICIiAiIgIiICIiAiIgIiICIiAiIgIiICIiAiIgIiIHERMHU9QWiuTzY8lXxJ/pI5ZSTmjOiRS8esF31apQn3UXr88dBPqz1uqo2shbaMsejBfM/WZ/7OMvFliPlEpnM6LaurqGU5BndNMss5iTmIidCIiAiIgIms1bXLa1CtcVkphiQpc4yR1xPjSOILW6LC3rJVKYLbCTjdnGfXB+kDbREQEREBERAREQETourlKal3dUVeZZiFUD4k9J1afqNGuu+jVSoucbkZWXPlkQMyJ1VaiqpZmCqoySSAAPMk9JFa/aPpaHabpSR4qrsv8AzBcH5QJfExrK7StTSrTYMjgMrDOCD0POZMBERAREQEREBERAREQEREBERAREQOInM6a9dUGWIA8zOWye6OwzQ2K9/WeseaodqDw9f1+c41DX02sqZJIIzjAGeWec0tHUqioEUhRzyQPaOfMzDrbjDyk55k9+v3+ELlG2tStWu9ZyNqHauSMfDr9Z03Oootwai+0pXaceJ6eM0ZM4mO7i8cSe+eeUPJmLq70VYU8AZLAEZx8Jv9F4hpV0BZlRhyZWIHPzXPUSHXp9h/SaGXbfXyk/cc87iuinUU8wQfQg/wAp9yEdnlb++X/K38xJvPSwy8pytxvM5cxEjnGfFNPTqBrONzMdtNAcFm9fAAcyZNJI4nnG57TNVuHPdPs8QlGkDgfMEmTXso4m1C7r1adw++nSTLbqYVwzH2RkAeR6+UDSdvd9uuLagD7iM5HxdsD7JJB2D2O20r1iP7yptB81RR+rt9JXPaxfd7qdxzyKe2mPyKM/9RaZFl2g17azo2lmO72AtUqMAzMzMSdoPJVGQMnn6QPSUTz9wZ2m3i3NNLmqatKowRtyruXccAqQB0J6GXXxDrtGyoNXrHCryAHvMx6Ko8SYG2ieedZ7V9QruVt8UVJwqogeofViDk+gE6NH7VNRoOO+cVkBwyVFAbHjhlAIPrmB6NiaJdfp1LFr2k3sGkzqT1BUHkw8wwwfSUro3aterWRrirvpLkui00DNgHCggcsnHOB6HiebdW7UtRrOWSqKKZ5JTVcAfFmBLf8AfKWH2Wcf1L1ntrnBqqu5HUY3qOTBgOW4ZB5dRnygd3bTplzXtqXcK7qjlqiICWxt9lto5kA5+s13YnoNzQ/aK1ZHppUCqqOCrMVJJbaeYAzjPjmY/aZ2gXdpem3tnRVVFLZRWO5sk8z05ETm644vU0endtUHf16xRGFNcBF3ZG0jB9w8/jA1XbVxOz1/2FGxTpgNUAPvOw3AH4KCDjzM1PCnZfcXtAXBqpSV/cDKWLAct3LoMiQvU7+pcVXrVTudzuY4AyfQdJZnZfxTf166WgqqKVKi21RTQAbF2pkgZ94r6wLq060WjSp0l6U1VB6KAP0mVPO1t2qal3iK9RMbgGHdIDjIBH85enEerLa2ta4PSmhYfE9FHzJEDaxKE4Z4+1a8uaVutVP7RvaIpL7KjmzdPBQftL6EDmIiAiIgIiICIiAiIgIiICIiBxI/xW3sovmxP0H+8kEi3FT+2g8lJ+p/2mbdXjSqOXTQzMsdNqVfdHs/iPJfl5z4sLbvKip4E8/QdZNmZKSZOFVR9BMG3281Ocsr6ivHHntoE4YOOdQZ+C8pq9SsTRYKWDZGeX6yRJxDRJwdw+JXlI5qlz3lVmHTOF9B0/rJa+Ojjj8O3cpjx6ay/PsNNHN1qZ9g+omllWj9VWSScCVttwV/EpH0wf0ljyqeGK226onzbafzAiWtPU29+PC7Tvxcyoe3qwqNTtq6gmnTLK+Oil9u0n4HBEt6am41K0qPUtHqUmYDFSkzLnDDOCp65Bl6xRHZjxrS053StTylUjNRebrt5dPFefQfeX9Y3tGpTFekysjLu3rjmB5n4c+R6Tz72qcP2tnXQWrDFRSzUw27uyDyweoBycA+U3vZxqlSjpOpsSdlMHZnoHdCpA+ZSBXGqV2uLmq45tWqsR8S7HA+4nomz4bt7HTatLYhxRZqrFRl22EsST4Z5AeGBKI7P7HvtRtUIyO8DH0T2v8A8y+O1a97rTLk+LhaY/OwB+2YHnjhq2NS7tqY6tVQf9Qz9pNe2vWmq3otwfYt1Ax4b3AZifkVH1mt7IbLvNTonwpB6h/KuB92Ew+02ky6ndgjq4YfEMqkEQLR7FuHEp237Yyg1a5IUkc1pqcDb5biCSfSQfttoIuogqAC9JWfAxlssMn44UfSWb2fcQ2q6ZQY1kQUE21AzAFWXOcg8+fUeeZR3GOtm+vatdQSrsEpjHtbF9lRjzPXHmYE40K/NPhu6z0ao1Nf/sKA4+rSG9n+gC9vadB87Bl6mPFU5kZ+JwPnJfx5Ymx0exsjyd3NSoP4sFiPkXA/LOewhUFxc1GZVYIqqGYBjuOWIB6j2RAmHa3plBdLbFNV7tkFPaijaSwGBjoCCZWPY+rHVKOM8lcn02Hr88SQds/FtOuUsqDhlptvqspypbGFUEdcZJPxI8p9djmlGlTudScYVEZKZPiQNzkfDkBn1gQbjy977ULuoOneMo9E9gf6ZfdnTWz0dCyg9xbb+YHvbN31yZ510mgbi6pIeZrVVB/OwyfoTPQHa5edzpdVV5d4Upj0LAnH5VMChuFLLv722pdd9VM558gwLZ+QM9XU6KrzVVHoAP5Tzt2M2PeakjEcqSPU+GcbR/r+09HQPKHGtn3F/dUx+7VYj0Y7h9mEsbti4hzaWdsp/vkWs/8AlCjaD6sSfyyP9tdls1EvjlVpo/zGVP8ApH1kZp99qNxb0RzcrToJ4hVpqF3H4YDMfnAtLsM4e206l8451M06efwqfbYerDH5ZbswtKsEoUadCmMLSUIvooxk/E9fnM2AiIgIiICIiAiIgIiICIiAiIgcSG8Rvmuf4QB+v6yZSCau+6s5/ix9OUw768YSf6hn07+HnArrnxBA9T/4krvLYVEZG6N5dZA1cggg4I5gjrJZo2rir7DcnA+R+I8pVtNTHi6d/LmFnSPahpz0T7XNT0YdD6+RmFJ9eWwqIVYciPv4GQNlwSD4cvpKdzozSynHVRzx4YOqn2PmJp5ttVPsD1mpnNL6q67rKpsqI34WU/QiXGpyJS0uDS6u+jTb8SKftN+2vcWaV7Zko7i7suv61zWuEelV71y3NijAHoMHlyGB18JeMTWueftM7Hb52HfNTpL4ndvbHwUcvqZYmtcDFdM/4fZFVLMpdqjEF8HLFiAeZwOWMYGJPYgVN2d9m9xZXYuK7UiqoyqEZidzYGeajwz9ZJO0zhu4v7enQoMi4fe+9iOQUgAYBzzaTWIFZ9mHANfT61WtXamxdAid2zHHtZbOVGPdEz+0Ls+TUdtWm4p10G3cR7Lr4K2OYx4H4yexA85/+0Wp7sbaWPxd6Nv8s/aWFwL2YU7Nlr3DCrWXmoA/s0PmM82b4np5SyogUJ273267o0R/hU9x8sux/RRI7oXZ7eXlutzQCMrMy4L7WG04J5jGOvjOe0mo9bUrpwrlVbYvsnGEAXly6ZBPzl79n1j3OnWiEYPdhiMYOX9s5+PtQKx4d7G67OGvXVEByUptudvhuxhfXnLQ1/Q2bT6llaBE3J3aAkhFB5HJAJ6Z5+ckcQKZ4L7Lrq2vaFxWakUpEsQjMWJ2kLyKjxP2kt7T+F7jUKVGlQZFCOXfexGfZIGMA56mTmIFb9l/AtfTnr1K7U2LqqrsZjgAktnIH8P0lkRKt7atVvLelR7iqUpVSyVNow5bGQN/UAjPTHSBEe23WKNe6pU6R3NQVldgQV3MQdoPiRjn6yQdiXCxVWv6gwXBSiCP3f3n+ZGB8AfORDs+7P6t861ayslsDkschqn8KfA+LfTnPRNCiqKqIoVVAVVAwAByAA8sQO6IiAiIgIiICIiAiIgIiICIiAiIgfLSvbh9zs3mSfvJ5ePhHPkpP2lfzzt9eorzSXStJR6A3jmxLAj3h4Dn8pkafoYpPv3k46DGOvnNBYarUo8lO5fwt0+R8Jtl4mGOdM5+DDE5pamhxLZxYS4t9cVgilj0AzK/ZsknzOfrM/UtXet7ONq+Q8fUzXSnda01MpMeojllywNX91fX9Jqps9XPJfnNZOaf1V3slocJVt1rT+AI+hMq+WBwDVzQZfwv9iB/vNe3vGSenfklkRE3LyYrXtMVBRNRe8K7wm4b9oOC23rtzyzMqVffWT3utXFJWK0KVFKddlJDMp9vu1Ye7uLc8c8KYEzXi2xNTuRd0S+du0VF97pjPTOeWJvZGuI+HbZ7KrR7lFRabFNqqNhVSVKkDkQQJprTiapS0m0q47y5rqlKkp6vUb2QW+AA3H0gSvVdctrYA3FenTz03uAx9F6n5To0jiazumKW9wlRwNxVSd2BgE4ODjmPrMHh/hOnR/ta+Li6cZqVqgDNk8yqA8kQdAB5TXcOUlfVtQrKoC0Up26kAAZxvfp45xAlb6lRBqA1UBogNUBcDYDzBf8ACCAesxf/AFJZ90twbmkKTMUWoXUIWGcgMep5H6SB6LpX7fqGoPVw1qldQyfu1alNQiq/miYLY8Swk04np0aNlXY0qe2jTdkXu02BtpwVXGAcmBo+EOM6FcVGr3NuHeuy0ae5VbZu2pyJyxbrnxzJiL6lvalvXeih2TcNyqejMPAcusjnA+gUadjaFqNM1BTVyxRS+5huzuIzkZkdoaY19q1+GYi2Tu6dUKcGqUXIplh0TJJYeOAIE0teK7KpV7hLqi1QnAUVAST5KejH4CbyQLtL0qgmm1GSkiNRKGiUVVZW3qBtIHxmbxZqtZaVta0G23N4RTV/FFABqVMfAdPiRA2Wo8XWNu/d1rqkrjqpbJHrjO35zbU7lGQVFdShG4OCCu3Gc56YxI4bPTtOtmWp3SoAd7VNrVKhI5ls+07E+Ej2ks9toNw7qyBlrNSRveRKhIpqfL3gfnAm9xr9qiU6j3FNUq47ti4w+emz8XymVe2NKsAtWmrhSGAdQwDDocHx5yIcB8MKtCjcXKipXamiqHUFaNNQNiIp5KccyepJk6gfCqAMAYA6AT7iICIiAiIgIiICIiAiIgIiICIiAiIgcTGq2VNveRT8hn6zJiRuMvcGpq6DRPQFfQ/1mDV4Z/DU+o/pJJEqy22ll3HPGIdV0CsvQK3oef0MwqthVX3kYfLI+0n0SjLY4Xq2I+EVPqyEsigEnnywc+E+bbQrh/dotjzYbR95bHdjOcDPnjnPqSw2sxnFqP8AHFe23BNY++6r6ZYyU6BoYtQ4Ds2/GcgADGen1m5iaMdLHG8xOYydOYiJYkSF9na7zf3R/wAe6fafNKeEX+Rkl1q7FGhWqn/Dpu//ACqTK64MsdYo2VAW7Wr06i94oqioHTvCXO7b73NswJH2k6oadqben7VxeHuKSj3vb5M3LoAp6/ETW/8AD1p6lpdp1S1tndR4FsCnux58s/Mza6BwoyVzeXlb9ouiNqttxSpKf3aSeHr6+Zn3xZw7WrVKF1aVFp3NvuClwTTdW6o+OeP6mBvdV1BLei9eoQqU1LMfTwHxJwB6yG9mFxmyuL187q9arWbPXC8sfIKRO5eG767dH1GrS7ukd621AN3bOPdaqzc2APPH/ZyLDh24paXUsgyd+6VQGBITdUZjnOMjk/lA+uy+iRYJUb3q7vWbzJqOSM/LE+O1Oqf2E0VOGuKlOiPP23GcfISRaFYfs9vRocv7JFQ46ZUAEj55mu4y0Fryii03CVaNRa1NmGV3ocgMB4GBvKaBEC/uooHyUf0EiPZiu62q3BHO5uKtX1BYqPss3FKjePa1UrGj+0MrhDT3ikMrhc7ufXrOzhXSza2lvbsQWpoFYjoW6tj4ZJgaPtH9tbO2H/yLqmD/AJUO5v8ASJruJtLp3Wr29C4Dd2LZ2QK7Kd+8ZwykH3RJFq2i1K19Z3GV7q2FRiMncXcBVIGMYAz4+M+eKuG2uTRrUavc3NuxalU27lwfeV18VMD60/gqwosHS2QuOjPudh6FycTW9px321G3HW6uKVLHmN25vss7adjq7lRVubamgILGjSZqjAHJA3nC5xjx6zN13Rale6saoK91bO9RwSdxYptTaMY5EkwJAgAAA6DkPlPuIgIiICIiAiIgIiICIiAiIgIiICIiAiIgIiICIiAiIgIiICIiAiIgR7jmyrV7GvQoKGqVVCAFgBgkbjk/w5m5sbcU6dOmOiKqj8oA/SZEQEREBERAREQEREBERAREQEREBERAREQEREBERAREQEREBERAREQEREBERAREQEREBERAREQEREBERAREQEREBERAREQEREBERAREQEREBERAREQEREBERAREQP/Z;" vertex="1" parent="1">
          <mxGeometry width="353" height="143" as="geometry" />
        </mxCell>
      </root>
    </mxGraphModel>
  </diagram>
</mxfile>
